<mxfile host="app.diagrams.net" modified="2024-05-31T12:57:16.222Z" agent="Mozilla/5.0 (Windows NT 10.0; Win64; x64) AppleWebKit/537.36 (KHTML, like Gecko) Chrome/125.0.0.0 Safari/537.36" etag="FxG12utzm3mpIJ_IwCSC" version="24.4.11" type="device">
  <diagram name="第 1 页" id="tS60RXy72zwsy0UMJq4P">
    <mxGraphModel dx="881" dy="417" grid="1" gridSize="10" guides="1" tooltips="1" connect="1" arrows="1" fold="1" page="1" pageScale="1" pageWidth="827" pageHeight="1169" math="0" shadow="0">
      <root>
        <mxCell id="0" />
        <mxCell id="1" parent="0" />
        <mxCell id="Fnqf_rGc0j3J3BeD0VBW-1" value="" style="rounded=1;whiteSpace=wrap;html=1;fillColor=#b1ddf0;strokeColor=#10739e;" parent="1" vertex="1">
          <mxGeometry x="170" y="130" width="90" height="249" as="geometry" />
        </mxCell>
        <mxCell id="6nkBr_EawYu-rV_yUotK-2" value="&lt;b&gt;&lt;font style=&quot;font-size: 20px;&quot;&gt;Linear&lt;/font&gt;&lt;/b&gt;" style="text;html=1;align=center;verticalAlign=middle;whiteSpace=wrap;rounded=0;" vertex="1" parent="1">
          <mxGeometry x="187" y="126" width="60" height="30" as="geometry" />
        </mxCell>
        <mxCell id="6nkBr_EawYu-rV_yUotK-6" value="&lt;font style=&quot;font-size: 14px;&quot;&gt;&lt;b&gt;&lt;font style=&quot;font-size: 14px;&quot;&gt;Input&amp;nbsp;&lt;/font&gt;&lt;/b&gt;&lt;b style=&quot;background-color: initial;&quot;&gt;&lt;font style=&quot;font-size: 14px;&quot;&gt;Features&lt;/font&gt;&lt;/b&gt;&lt;/font&gt;" style="text;html=1;align=center;verticalAlign=middle;whiteSpace=wrap;rounded=0;" vertex="1" parent="1">
          <mxGeometry x="112" y="110" width="206" height="16" as="geometry" />
        </mxCell>
        <mxCell id="6nkBr_EawYu-rV_yUotK-10" value="&lt;b&gt;&lt;font style=&quot;font-size: 14px;&quot;&gt;（768, 128）&lt;/font&gt;&lt;/b&gt;" style="text;html=1;align=center;verticalAlign=middle;whiteSpace=wrap;rounded=0;" vertex="1" parent="1">
          <mxGeometry x="156" y="146" width="120" height="30" as="geometry" />
        </mxCell>
        <mxCell id="6nkBr_EawYu-rV_yUotK-12" value="" style="rounded=1;whiteSpace=wrap;html=1;fillColor=#b0e3e6;strokeColor=#0e8088;" vertex="1" parent="1">
          <mxGeometry x="295" y="129" width="86" height="250" as="geometry" />
        </mxCell>
        <mxCell id="6nkBr_EawYu-rV_yUotK-13" value="&lt;b&gt;&lt;font style=&quot;font-size: 14px;&quot;&gt;Hidden Representations&lt;/font&gt;&lt;/b&gt;" style="text;html=1;align=center;verticalAlign=middle;whiteSpace=wrap;rounded=0;" vertex="1" parent="1">
          <mxGeometry x="285.5" y="91" width="103" height="37" as="geometry" />
        </mxCell>
        <mxCell id="6nkBr_EawYu-rV_yUotK-15" value="&lt;b&gt;&lt;font style=&quot;font-size: 14px;&quot;&gt;（128, 2）&lt;/font&gt;&lt;/b&gt;" style="text;html=1;align=center;verticalAlign=middle;whiteSpace=wrap;rounded=0;" vertex="1" parent="1">
          <mxGeometry x="279" y="149" width="120" height="30" as="geometry" />
        </mxCell>
        <mxCell id="6nkBr_EawYu-rV_yUotK-45" value="" style="edgeStyle=orthogonalEdgeStyle;rounded=0;orthogonalLoop=1;jettySize=auto;html=1;" edge="1" parent="1" source="6nkBr_EawYu-rV_yUotK-18" target="6nkBr_EawYu-rV_yUotK-27">
          <mxGeometry relative="1" as="geometry" />
        </mxCell>
        <mxCell id="6nkBr_EawYu-rV_yUotK-18" value="&lt;font style=&quot;font-size: 20px;&quot;&gt;x&lt;/font&gt;&lt;sub&gt;768&lt;/sub&gt;" style="ellipse;whiteSpace=wrap;html=1;aspect=fixed;fillColor=#dae8fc;strokeColor=#6c8ebf;" vertex="1" parent="1">
          <mxGeometry x="195" y="330" width="38" height="38" as="geometry" />
        </mxCell>
        <mxCell id="6nkBr_EawYu-rV_yUotK-19" value="&lt;font style=&quot;font-size: 20px;&quot;&gt;x&lt;/font&gt;&lt;sub&gt;1&lt;/sub&gt;" style="ellipse;whiteSpace=wrap;html=1;aspect=fixed;fillColor=#dae8fc;strokeColor=#6c8ebf;" vertex="1" parent="1">
          <mxGeometry x="197" y="175" width="38" height="38" as="geometry" />
        </mxCell>
        <mxCell id="6nkBr_EawYu-rV_yUotK-20" value="&lt;font style=&quot;font-size: 20px;&quot;&gt;x&lt;/font&gt;&lt;sub&gt;767&lt;/sub&gt;" style="ellipse;whiteSpace=wrap;html=1;aspect=fixed;fillColor=#dae8fc;strokeColor=#6c8ebf;" vertex="1" parent="1">
          <mxGeometry x="195" y="284" width="38" height="38" as="geometry" />
        </mxCell>
        <mxCell id="6nkBr_EawYu-rV_yUotK-21" value="&lt;font style=&quot;font-size: 20px;&quot;&gt;x&lt;/font&gt;&lt;font style=&quot;font-size: 10px;&quot;&gt;2&lt;/font&gt;" style="ellipse;whiteSpace=wrap;html=1;aspect=fixed;fillColor=#dae8fc;strokeColor=#6c8ebf;" vertex="1" parent="1">
          <mxGeometry x="196" y="222" width="38" height="38" as="geometry" />
        </mxCell>
        <mxCell id="6nkBr_EawYu-rV_yUotK-23" value="&lt;b&gt;&lt;font style=&quot;font-size: 16px;&quot;&gt;···&lt;/font&gt;&lt;/b&gt;" style="text;html=1;align=center;verticalAlign=middle;whiteSpace=wrap;rounded=0;" vertex="1" parent="1">
          <mxGeometry x="185" y="256" width="60" height="30" as="geometry" />
        </mxCell>
        <mxCell id="6nkBr_EawYu-rV_yUotK-24" value="&lt;font style=&quot;&quot;&gt;&lt;span style=&quot;font-size: 18px;&quot;&gt;h&lt;/span&gt;&lt;sub style=&quot;&quot;&gt;&lt;font style=&quot;font-size: 9px;&quot;&gt;1&lt;/font&gt;&lt;/sub&gt;&lt;/font&gt;" style="ellipse;whiteSpace=wrap;html=1;aspect=fixed;fillColor=#1ba1e2;strokeColor=#006EAF;fontColor=#ffffff;" vertex="1" parent="1">
          <mxGeometry x="318" y="176" width="38" height="38" as="geometry" />
        </mxCell>
        <mxCell id="6nkBr_EawYu-rV_yUotK-25" value="&lt;span style=&quot;font-size: 18px;&quot;&gt;h&lt;/span&gt;&lt;sub&gt;&lt;font style=&quot;font-size: 9px;&quot;&gt;2&lt;/font&gt;&lt;/sub&gt;" style="ellipse;whiteSpace=wrap;html=1;aspect=fixed;fillColor=#1ba1e2;strokeColor=#006EAF;fontColor=#ffffff;" vertex="1" parent="1">
          <mxGeometry x="318" y="222" width="38" height="38" as="geometry" />
        </mxCell>
        <mxCell id="6nkBr_EawYu-rV_yUotK-26" value="&lt;span style=&quot;font-size: 18px;&quot;&gt;h&lt;/span&gt;&lt;sub&gt;&lt;font style=&quot;font-size: 9px;&quot;&gt;127&lt;/font&gt;&lt;/sub&gt;" style="ellipse;whiteSpace=wrap;html=1;aspect=fixed;fillColor=#1ba1e2;strokeColor=#006EAF;fontColor=#ffffff;" vertex="1" parent="1">
          <mxGeometry x="318" y="284" width="38" height="38" as="geometry" />
        </mxCell>
        <mxCell id="6nkBr_EawYu-rV_yUotK-27" value="&lt;span style=&quot;font-size: 18px;&quot;&gt;h&lt;/span&gt;&lt;sub&gt;&lt;font style=&quot;font-size: 9px;&quot;&gt;128&lt;/font&gt;&lt;/sub&gt;" style="ellipse;whiteSpace=wrap;html=1;aspect=fixed;fillColor=#1ba1e2;strokeColor=#006EAF;fontColor=#ffffff;" vertex="1" parent="1">
          <mxGeometry x="318" y="330" width="38" height="38" as="geometry" />
        </mxCell>
        <mxCell id="6nkBr_EawYu-rV_yUotK-29" value="" style="endArrow=classic;html=1;rounded=0;exitX=1;exitY=0.5;exitDx=0;exitDy=0;entryX=0;entryY=0.5;entryDx=0;entryDy=0;" edge="1" parent="1" source="6nkBr_EawYu-rV_yUotK-19" target="6nkBr_EawYu-rV_yUotK-24">
          <mxGeometry width="50" height="50" relative="1" as="geometry">
            <mxPoint x="360" y="370" as="sourcePoint" />
            <mxPoint x="410" y="320" as="targetPoint" />
          </mxGeometry>
        </mxCell>
        <mxCell id="6nkBr_EawYu-rV_yUotK-30" value="" style="endArrow=classic;html=1;rounded=0;exitX=1;exitY=0.5;exitDx=0;exitDy=0;" edge="1" parent="1" source="6nkBr_EawYu-rV_yUotK-21" target="6nkBr_EawYu-rV_yUotK-25">
          <mxGeometry width="50" height="50" relative="1" as="geometry">
            <mxPoint x="360" y="370" as="sourcePoint" />
            <mxPoint x="410" y="320" as="targetPoint" />
          </mxGeometry>
        </mxCell>
        <mxCell id="6nkBr_EawYu-rV_yUotK-31" value="" style="endArrow=classic;html=1;rounded=0;exitX=1;exitY=0.5;exitDx=0;exitDy=0;entryX=0;entryY=0.5;entryDx=0;entryDy=0;" edge="1" parent="1" source="6nkBr_EawYu-rV_yUotK-20" target="6nkBr_EawYu-rV_yUotK-26">
          <mxGeometry width="50" height="50" relative="1" as="geometry">
            <mxPoint x="360" y="370" as="sourcePoint" />
            <mxPoint x="410" y="320" as="targetPoint" />
          </mxGeometry>
        </mxCell>
        <mxCell id="6nkBr_EawYu-rV_yUotK-32" value="" style="endArrow=classic;html=1;rounded=0;exitX=1;exitY=0.5;exitDx=0;exitDy=0;entryX=0;entryY=0.5;entryDx=0;entryDy=0;" edge="1" parent="1" source="6nkBr_EawYu-rV_yUotK-18" target="6nkBr_EawYu-rV_yUotK-27">
          <mxGeometry width="50" height="50" relative="1" as="geometry">
            <mxPoint x="360" y="370" as="sourcePoint" />
            <mxPoint x="410" y="320" as="targetPoint" />
          </mxGeometry>
        </mxCell>
        <mxCell id="6nkBr_EawYu-rV_yUotK-33" value="" style="endArrow=classic;html=1;rounded=0;exitX=1;exitY=0.5;exitDx=0;exitDy=0;entryX=0.083;entryY=0.286;entryDx=0;entryDy=0;entryPerimeter=0;" edge="1" parent="1" source="6nkBr_EawYu-rV_yUotK-19" target="6nkBr_EawYu-rV_yUotK-25">
          <mxGeometry width="50" height="50" relative="1" as="geometry">
            <mxPoint x="360" y="370" as="sourcePoint" />
            <mxPoint x="410" y="320" as="targetPoint" />
          </mxGeometry>
        </mxCell>
        <mxCell id="6nkBr_EawYu-rV_yUotK-34" value="" style="endArrow=classic;html=1;rounded=0;exitX=1;exitY=0.5;exitDx=0;exitDy=0;entryX=0;entryY=0;entryDx=0;entryDy=0;" edge="1" parent="1" source="6nkBr_EawYu-rV_yUotK-19" target="6nkBr_EawYu-rV_yUotK-26">
          <mxGeometry width="50" height="50" relative="1" as="geometry">
            <mxPoint x="360" y="370" as="sourcePoint" />
            <mxPoint x="410" y="320" as="targetPoint" />
          </mxGeometry>
        </mxCell>
        <mxCell id="6nkBr_EawYu-rV_yUotK-35" value="" style="endArrow=classic;html=1;rounded=0;exitX=1;exitY=0.5;exitDx=0;exitDy=0;entryX=0;entryY=0;entryDx=0;entryDy=0;" edge="1" parent="1" source="6nkBr_EawYu-rV_yUotK-19" target="6nkBr_EawYu-rV_yUotK-27">
          <mxGeometry width="50" height="50" relative="1" as="geometry">
            <mxPoint x="360" y="370" as="sourcePoint" />
            <mxPoint x="410" y="320" as="targetPoint" />
          </mxGeometry>
        </mxCell>
        <mxCell id="6nkBr_EawYu-rV_yUotK-36" value="" style="endArrow=classic;html=1;rounded=0;exitX=1;exitY=0.5;exitDx=0;exitDy=0;entryX=0.028;entryY=0.342;entryDx=0;entryDy=0;entryPerimeter=0;" edge="1" parent="1" source="6nkBr_EawYu-rV_yUotK-21" target="6nkBr_EawYu-rV_yUotK-26">
          <mxGeometry width="50" height="50" relative="1" as="geometry">
            <mxPoint x="360" y="370" as="sourcePoint" />
            <mxPoint x="410" y="320" as="targetPoint" />
          </mxGeometry>
        </mxCell>
        <mxCell id="6nkBr_EawYu-rV_yUotK-37" value="" style="endArrow=classic;html=1;rounded=0;exitX=1;exitY=0.5;exitDx=0;exitDy=0;entryX=0.028;entryY=0.329;entryDx=0;entryDy=0;entryPerimeter=0;" edge="1" parent="1" source="6nkBr_EawYu-rV_yUotK-21" target="6nkBr_EawYu-rV_yUotK-27">
          <mxGeometry width="50" height="50" relative="1" as="geometry">
            <mxPoint x="360" y="370" as="sourcePoint" />
            <mxPoint x="410" y="320" as="targetPoint" />
          </mxGeometry>
        </mxCell>
        <mxCell id="6nkBr_EawYu-rV_yUotK-38" value="" style="endArrow=classic;html=1;rounded=0;exitX=1;exitY=0.5;exitDx=0;exitDy=0;" edge="1" parent="1" source="6nkBr_EawYu-rV_yUotK-21">
          <mxGeometry width="50" height="50" relative="1" as="geometry">
            <mxPoint x="360" y="370" as="sourcePoint" />
            <mxPoint x="318" y="200" as="targetPoint" />
          </mxGeometry>
        </mxCell>
        <mxCell id="6nkBr_EawYu-rV_yUotK-39" value="" style="endArrow=classic;html=1;rounded=0;exitX=1;exitY=0.5;exitDx=0;exitDy=0;entryX=0.06;entryY=0.722;entryDx=0;entryDy=0;entryPerimeter=0;" edge="1" parent="1" source="6nkBr_EawYu-rV_yUotK-20" target="6nkBr_EawYu-rV_yUotK-24">
          <mxGeometry width="50" height="50" relative="1" as="geometry">
            <mxPoint x="470.00000000000205" y="361.9999999999999" as="sourcePoint" />
            <mxPoint x="320" y="200" as="targetPoint" />
          </mxGeometry>
        </mxCell>
        <mxCell id="6nkBr_EawYu-rV_yUotK-40" value="" style="endArrow=classic;html=1;rounded=0;exitX=1;exitY=0.5;exitDx=0;exitDy=0;entryX=0.053;entryY=0.702;entryDx=0;entryDy=0;entryPerimeter=0;" edge="1" parent="1" source="6nkBr_EawYu-rV_yUotK-20" target="6nkBr_EawYu-rV_yUotK-25">
          <mxGeometry width="50" height="50" relative="1" as="geometry">
            <mxPoint x="380" y="340" as="sourcePoint" />
            <mxPoint x="430" y="290" as="targetPoint" />
          </mxGeometry>
        </mxCell>
        <mxCell id="6nkBr_EawYu-rV_yUotK-41" value="" style="endArrow=classic;html=1;rounded=0;exitX=1;exitY=0.5;exitDx=0;exitDy=0;" edge="1" parent="1">
          <mxGeometry width="50" height="50" relative="1" as="geometry">
            <mxPoint x="235" y="303" as="sourcePoint" />
            <mxPoint x="318" y="345" as="targetPoint" />
          </mxGeometry>
        </mxCell>
        <mxCell id="6nkBr_EawYu-rV_yUotK-42" value="" style="endArrow=classic;html=1;rounded=0;exitX=1;exitY=0.5;exitDx=0;exitDy=0;entryX=0;entryY=1;entryDx=0;entryDy=0;" edge="1" parent="1" source="6nkBr_EawYu-rV_yUotK-18" target="6nkBr_EawYu-rV_yUotK-24">
          <mxGeometry width="50" height="50" relative="1" as="geometry">
            <mxPoint x="380" y="320" as="sourcePoint" />
            <mxPoint x="430" y="270" as="targetPoint" />
          </mxGeometry>
        </mxCell>
        <mxCell id="6nkBr_EawYu-rV_yUotK-43" value="" style="endArrow=classic;html=1;rounded=0;exitX=1;exitY=0.5;exitDx=0;exitDy=0;entryX=0;entryY=1;entryDx=0;entryDy=0;" edge="1" parent="1" source="6nkBr_EawYu-rV_yUotK-18" target="6nkBr_EawYu-rV_yUotK-25">
          <mxGeometry width="50" height="50" relative="1" as="geometry">
            <mxPoint x="480" y="300" as="sourcePoint" />
            <mxPoint x="430" y="270" as="targetPoint" />
          </mxGeometry>
        </mxCell>
        <mxCell id="6nkBr_EawYu-rV_yUotK-44" value="" style="endArrow=classic;html=1;rounded=0;entryX=0.096;entryY=0.781;entryDx=0;entryDy=0;entryPerimeter=0;exitX=1.015;exitY=0.473;exitDx=0;exitDy=0;exitPerimeter=0;" edge="1" parent="1" source="6nkBr_EawYu-rV_yUotK-18" target="6nkBr_EawYu-rV_yUotK-26">
          <mxGeometry width="50" height="50" relative="1" as="geometry">
            <mxPoint x="270" y="380" as="sourcePoint" />
            <mxPoint x="430" y="300" as="targetPoint" />
          </mxGeometry>
        </mxCell>
        <mxCell id="6nkBr_EawYu-rV_yUotK-46" value="&lt;b&gt;&lt;font style=&quot;font-size: 16px;&quot;&gt;···&lt;/font&gt;&lt;/b&gt;" style="text;html=1;align=center;verticalAlign=middle;whiteSpace=wrap;rounded=0;" vertex="1" parent="1">
          <mxGeometry x="307" y="260" width="60" height="30" as="geometry" />
        </mxCell>
        <mxCell id="6nkBr_EawYu-rV_yUotK-47" value="" style="rounded=1;whiteSpace=wrap;html=1;fillColor=#b1ddf0;strokeColor=#10739e;" vertex="1" parent="1">
          <mxGeometry x="410" y="129" width="86" height="250" as="geometry" />
        </mxCell>
        <mxCell id="6nkBr_EawYu-rV_yUotK-48" value="&lt;b&gt;&lt;font style=&quot;font-size: 20px;&quot;&gt;Output&lt;/font&gt;&lt;/b&gt;" style="text;html=1;align=center;verticalAlign=middle;whiteSpace=wrap;rounded=0;" vertex="1" parent="1">
          <mxGeometry x="423" y="126" width="60" height="30" as="geometry" />
        </mxCell>
        <mxCell id="6nkBr_EawYu-rV_yUotK-49" value="&lt;b&gt;&lt;font style=&quot;font-size: 20px;&quot;&gt;Linear&lt;/font&gt;&lt;/b&gt;" style="text;html=1;align=center;verticalAlign=middle;whiteSpace=wrap;rounded=0;" vertex="1" parent="1">
          <mxGeometry x="307" y="128" width="60" height="30" as="geometry" />
        </mxCell>
        <mxCell id="6nkBr_EawYu-rV_yUotK-50" value="&lt;font style=&quot;font-size: 23px;&quot;&gt;o&lt;/font&gt;&lt;sub&gt;1&lt;/sub&gt;" style="ellipse;whiteSpace=wrap;html=1;aspect=fixed;fillColor=#dae8fc;strokeColor=#6c8ebf;" vertex="1" parent="1">
          <mxGeometry x="434" y="200" width="38" height="38" as="geometry" />
        </mxCell>
        <mxCell id="6nkBr_EawYu-rV_yUotK-51" value="&lt;font style=&quot;font-size: 23px;&quot;&gt;o&lt;/font&gt;&lt;sub&gt;2&lt;/sub&gt;" style="ellipse;whiteSpace=wrap;html=1;aspect=fixed;fillColor=#dae8fc;strokeColor=#6c8ebf;" vertex="1" parent="1">
          <mxGeometry x="434" y="280" width="38" height="38" as="geometry" />
        </mxCell>
        <mxCell id="6nkBr_EawYu-rV_yUotK-52" value="" style="endArrow=classic;html=1;rounded=0;exitX=1;exitY=0.5;exitDx=0;exitDy=0;entryX=0;entryY=0.5;entryDx=0;entryDy=0;" edge="1" parent="1" source="6nkBr_EawYu-rV_yUotK-24" target="6nkBr_EawYu-rV_yUotK-50">
          <mxGeometry width="50" height="50" relative="1" as="geometry">
            <mxPoint x="350" y="330" as="sourcePoint" />
            <mxPoint x="400" y="280" as="targetPoint" />
          </mxGeometry>
        </mxCell>
        <mxCell id="6nkBr_EawYu-rV_yUotK-53" value="" style="endArrow=classic;html=1;rounded=0;entryX=0;entryY=0.5;entryDx=0;entryDy=0;exitX=1;exitY=0.5;exitDx=0;exitDy=0;" edge="1" parent="1" source="6nkBr_EawYu-rV_yUotK-24" target="6nkBr_EawYu-rV_yUotK-51">
          <mxGeometry width="50" height="50" relative="1" as="geometry">
            <mxPoint x="353" y="195" as="sourcePoint" />
            <mxPoint x="400" y="280" as="targetPoint" />
          </mxGeometry>
        </mxCell>
        <mxCell id="6nkBr_EawYu-rV_yUotK-54" value="" style="endArrow=classic;html=1;rounded=0;entryX=0.068;entryY=0.684;entryDx=0;entryDy=0;entryPerimeter=0;" edge="1" parent="1" source="6nkBr_EawYu-rV_yUotK-25" target="6nkBr_EawYu-rV_yUotK-50">
          <mxGeometry width="50" height="50" relative="1" as="geometry">
            <mxPoint x="360" y="240" as="sourcePoint" />
            <mxPoint x="450" y="290" as="targetPoint" />
          </mxGeometry>
        </mxCell>
        <mxCell id="6nkBr_EawYu-rV_yUotK-55" value="" style="endArrow=classic;html=1;rounded=0;entryX=0;entryY=0;entryDx=0;entryDy=0;" edge="1" parent="1" source="6nkBr_EawYu-rV_yUotK-25" target="6nkBr_EawYu-rV_yUotK-51">
          <mxGeometry width="50" height="50" relative="1" as="geometry">
            <mxPoint x="400" y="340" as="sourcePoint" />
            <mxPoint x="450" y="290" as="targetPoint" />
          </mxGeometry>
        </mxCell>
        <mxCell id="6nkBr_EawYu-rV_yUotK-56" value="" style="endArrow=classic;html=1;rounded=0;entryX=0.1;entryY=0.789;entryDx=0;entryDy=0;entryPerimeter=0;" edge="1" parent="1" source="6nkBr_EawYu-rV_yUotK-26" target="6nkBr_EawYu-rV_yUotK-50">
          <mxGeometry width="50" height="50" relative="1" as="geometry">
            <mxPoint x="400" y="340" as="sourcePoint" />
            <mxPoint x="450" y="290" as="targetPoint" />
          </mxGeometry>
        </mxCell>
        <mxCell id="6nkBr_EawYu-rV_yUotK-57" value="" style="endArrow=classic;html=1;rounded=0;exitX=0.921;exitY=0.726;exitDx=0;exitDy=0;exitPerimeter=0;entryX=0.041;entryY=0.665;entryDx=0;entryDy=0;entryPerimeter=0;" edge="1" parent="1" source="6nkBr_EawYu-rV_yUotK-26" target="6nkBr_EawYu-rV_yUotK-51">
          <mxGeometry width="50" height="50" relative="1" as="geometry">
            <mxPoint x="400" y="340" as="sourcePoint" />
            <mxPoint x="450" y="290" as="targetPoint" />
          </mxGeometry>
        </mxCell>
        <mxCell id="6nkBr_EawYu-rV_yUotK-58" value="" style="endArrow=classic;html=1;rounded=0;exitX=0.942;exitY=0.326;exitDx=0;exitDy=0;exitPerimeter=0;entryX=0.247;entryY=0.947;entryDx=0;entryDy=0;entryPerimeter=0;" edge="1" parent="1" source="6nkBr_EawYu-rV_yUotK-27" target="6nkBr_EawYu-rV_yUotK-50">
          <mxGeometry width="50" height="50" relative="1" as="geometry">
            <mxPoint x="400" y="340" as="sourcePoint" />
            <mxPoint x="450" y="290" as="targetPoint" />
          </mxGeometry>
        </mxCell>
        <mxCell id="6nkBr_EawYu-rV_yUotK-59" value="" style="endArrow=classic;html=1;rounded=0;exitX=1;exitY=0.5;exitDx=0;exitDy=0;entryX=0.289;entryY=0.958;entryDx=0;entryDy=0;entryPerimeter=0;" edge="1" parent="1" source="6nkBr_EawYu-rV_yUotK-27" target="6nkBr_EawYu-rV_yUotK-51">
          <mxGeometry width="50" height="50" relative="1" as="geometry">
            <mxPoint x="400" y="340" as="sourcePoint" />
            <mxPoint x="450" y="290" as="targetPoint" />
          </mxGeometry>
        </mxCell>
        <mxCell id="6nkBr_EawYu-rV_yUotK-61" value="&lt;b&gt;&lt;font style=&quot;font-size: 14px;&quot;&gt;Output Classes&lt;/font&gt;&lt;/b&gt;" style="text;html=1;align=center;verticalAlign=middle;whiteSpace=wrap;rounded=0;" vertex="1" parent="1">
          <mxGeometry x="393.75" y="99.5" width="118.5" height="37" as="geometry" />
        </mxCell>
      </root>
    </mxGraphModel>
  </diagram>
</mxfile>
